<svg xmlns="http://www.w3.org/2000/svg" xmlns:xlink="http://www.w3.org/1999/xlink" width="1440" height="674" viewBox="0 0 1440 674">
    <defs>
        <path id="a" d="M0 0h1442v674H0z"/>
        <path id="c" d="M.025.29h144.916v52.648H.025z"/>
        <path id="e" d="M.33.29h256.55v52.648H.33z"/>
        <path id="g" d="M.282.013h284.287v39.923H.282z"/>
        <path id="i" d="M.138.014h254.72v39.922H.138z"/>
        <path id="k" d="M.378.13h242.374v150.807H.378z"/>
        <path id="m" d="M.28.13h284.29v150.807H.28z"/>
    </defs>
    <g fill="none" fill-rule="evenodd">
        <mask id="b" fill="#fff">
            <use xlink:href="#a"/>
        </mask>
        <use fill="#F5F5F5" xlink:href="#a"/>
        <g mask="url(#b)">
            <path fill="#C4C4C4" d="M1376.53 353.372l6.827-32.785 162.083 52.233-168.91-19.448zm6.3-34.372a.7.7 0 0 0-.679.554l-7.139 34.278a.693.693 0 0 0 .602.827l176.609 20.334a.673.673 0 0 0 .762-.539.69.69 0 0 0-.466-.804l-169.47-54.615a.698.698 0 0 0-.22-.035z"/>
            <g transform="matrix(1 0 0 -1 830 53)">
                <mask id="d" fill="#fff">
                    <use xlink:href="#c"/>
                </mask>
                <path fill="#C4C4C4" d="M1.977 100.848l82.465 52.122L142.77 2.849 1.977 100.848zm82.807 53.85a.726.726 0 0 1-.371-.11L.349 101.457a.69.69 0 0 1-.324-.565.696.696 0 0 1 .297-.583L143.845.415a.705.705 0 0 1 .83.02c.24.186.329.51.219.792L85.438 154.25a.69.69 0 0 1-.654.447z" mask="url(#d)"/>
            </g>
            <g transform="matrix(1 0 0 -1 913 53)">
                <mask id="f" fill="#fff">
                    <use xlink:href="#e"/>
                </mask>
                <path fill="#C4C4C4" d="M2.039 153.332l252.134 3.978L60.867 2.113 2.04 153.332zm254.139 5.39h-.009L1.015 154.698a.7.7 0 0 1-.565-.306.685.685 0 0 1-.074-.633L59.913.736a.677.677 0 0 1 .47-.424.706.706 0 0 1 .621.132l195.617 157.052a.687.687 0 0 1 .217.774.7.7 0 0 1-.66.453z" mask="url(#f)"/>
            </g>
            <g transform="matrix(1 0 0 -1 1168 39)">
                <mask id="h" fill="#fff">
                    <use xlink:href="#g"/>
                </mask>
                <path fill="#C4C4C4" d="M.78 145.592l154.73 44.728 5.062.027L2.847 144.75 282.627 2.113l-67.59 188.507 1.475.009L284.528.934a.681.681 0 0 0-.196-.75.7.7 0 0 0-.778-.094L.656 144.316a.689.689 0 0 0 .125 1.276" mask="url(#h)"/>
            </g>
            <g transform="matrix(1 0 0 -1 1383 39)">
                <mask id="j" fill="#fff">
                    <use xlink:href="#i"/>
                </mask>
                <path fill="#C4C4C4" d="M1.611 190.63L69.284 1.661l183.235 88.173L26.796 190.757l3.35.017 224.3-100.288a.706.706 0 0 0 .412-.62.689.689 0 0 0-.395-.63L69.192.084a.704.704 0 0 0-.566-.018.672.672 0 0 0-.392.406L.138 190.62l1.473.01z" mask="url(#j)"/>
            </g>
            <path fill="#C4C4C4" d="M1386.828 317.031l77.024-58.557 45.243 13.647-122.267 44.91zM1463.71 257a.7.7 0 0 0-.415.14l-81.019 61.595a.71.71 0 0 0-.192.896c.163.308.53.446.85.326l128.61-47.242a.706.706 0 0 0 .456-.681.695.695 0 0 0-.498-.649l-47.59-14.355a.658.658 0 0 0-.202-.03z"/>
            <path fill="#C4C4C4" d="M1384.819 319.404l125.543-45.83 39.757 99.613-165.3-53.783zM1510.75 272a.8.8 0 0 0-.233.038l-128.064 46.753a.695.695 0 0 0 .027 1.31l168.614 54.864a.693.693 0 0 0 .72-.184.7.7 0 0 0 .135-.733l-40.553-101.613a.685.685 0 0 0-.646-.435zM932.33 123.349L739.42 10.077l232.8 42.078-39.89 71.194zM735.692 8a.693.693 0 0 0-.648.454.695.695 0 0 0 .299.842l196.895 115.61a.695.695 0 0 0 .956-.261l40.716-72.662a.694.694 0 0 0-.482-1.023L735.816 8.012a.588.588 0 0 0-.124-.012z"/>
            <path fill="#C4C4C4" d="M933.782 123.657l40.098-70.743 79.606 94.326-119.704-23.583zM973.761 51c-.018 0-.039.003-.06.003a.706.706 0 0 0-.546.355l-41.065 72.456a.69.69 0 0 0 .472 1.017l122.6 24.157a.71.71 0 0 0 .738-.331.677.677 0 0 0-.066-.799l-81.53-96.61a.717.717 0 0 0-.543-.248zM1318.698 541a.697.697 0 0 0-.676.873l38.597 147.604c.096.371.476.6.855.5a.692.692 0 0 0 .503-.85l-38.594-147.604a.704.704 0 0 0-.685-.523"/>
            <path fill="#C4C4C4" d="M1358.366 688.426l-37.616-145.428 195.677 97.667-158.06 47.761zM1319.691 541c-.154 0-.31.05-.435.154a.705.705 0 0 0-.234.719l38.179 147.604a.705.705 0 0 0 .873.496l160.43-48.483a.693.693 0 0 0 .109-1.288l-198.612-99.13a.671.671 0 0 0-.31-.072z"/>
            <path fill="#C4C4C4" d="M1319.955 540.545l55.98-185.089 174.491 20.246-230.471 164.843zM1375.433 354c-.3.003-.57.2-.66.496L1318.033 542.1a.689.689 0 0 0 .255.767.69.69 0 0 0 .813.003l233.608-167.081a.697.697 0 0 0-.326-1.26l-176.86-20.522c-.03-.003-.06-.006-.09-.006z"/>
            <path fill="#C4C4C4" d="M1320.044 541.243l231.365-165.056-34.031 263.058-197.334-98.002zM1552.302 374a.68.68 0 0 0-.4.13L1318.29 540.787a.689.689 0 0 0-.287.62c.017.242.163.459.382.565l199.248 98.953a.694.694 0 0 0 1-.534l34.36-265.606a.69.69 0 0 0-.691-.785zM1375.753 352.848l-115.291-123.973 122.073 91.33-6.782 32.643zM1254.69 223a.688.688 0 0 0-.513.228.695.695 0 0 0 .006.936l121.468 130.613a.693.693 0 0 0 1.19-.33l7.143-34.392a.687.687 0 0 0-.261-.694l-128.612-96.222a.68.68 0 0 0-.42-.139z"/>
            <path fill="#C4C4C4" d="M1382.836 318.436l-126.417-94.577 206.166 34.744-79.749 59.833zM1253.695 222a.694.694 0 0 0-.637.421.69.69 0 0 0 .22.83l129.136 96.611a.713.713 0 0 0 .842 0l81.466-61.12a.702.702 0 0 0 .26-.72.705.705 0 0 0-.566-.523l-210.599-35.49c-.045-.009-.08-.009-.122-.009z"/>
            <path fill="#C4C4C4" d="M1255.212 222.31l196.326-182.086 12.02 217.245-208.346-35.159zM1452.152 38a.715.715 0 0 0-.477.19l-198.452 184.06a.7.7 0 0 0 .357 1.2l210.606 35.54a.686.686 0 0 0 .58-.17.687.687 0 0 0 .233-.559L1452.85 38.66a.702.702 0 0 0-.7-.659zM1055.194 147.064L976.02 53.365l235.665 94.244-156.491-.545zM973.691 51c-.214 0-.425.1-.558.282a.693.693 0 0 0 .03.853l81.17 96.062c.13.153.326.247.531.247l160.44.556h.005a.688.688 0 1 0 .255-1.33L973.956 51.047a.737.737 0 0 0-.264-.047z"/>
            <g transform="matrix(1 0 0 -1 972 150)">
                <mask id="l" fill="#fff">
                    <use xlink:href="#k"/>
                </mask>
                <path fill="#C4C4C4" d="M2.428 98.661l193.045 157.137L241.15 1.945 2.428 98.661zm193.519 159.123a.694.694 0 0 1-.436-.158L.636 98.997a.684.684 0 0 1-.25-.645.692.692 0 0 1 .427-.54L241.796.176c.231-.09.5-.05.7.107.198.16.29.416.245.666l-46.11 256.26a.7.7 0 0 1-.438.532.806.806 0 0 1-.246.042z" mask="url(#l)"/>
            </g>
            <path fill="#C4C4C4" d="M1251.842 222.006l-193.257-72.59 155.56.55 37.697 72.04zM1054.692 148a.702.702 0 0 0-.68.579.7.7 0 0 0 .441.781l198.612 74.597c.27.098.574.027.763-.191a.71.71 0 0 0 .092-.79l-38.742-74.033a.697.697 0 0 0-.613-.376l-159.87-.567h-.002z"/>
            <g transform="matrix(1 0 0 -1 1168 150)">
                <mask id="n" fill="#fff">
                    <use xlink:href="#m"/>
                </mask>
                <path fill="#C4C4C4" d="M47.697 1.84L1.912 255.819 282.29 111.302 47.697 1.84zM.974 257.784a.68.68 0 0 1-.41-.137.69.69 0 0 1-.273-.683L46.486.703a.684.684 0 0 1 .365-.497.717.717 0 0 1 .615-.015l236.7 110.448c.24.113.398.354.404.618a.7.7 0 0 1-.377.633L1.295 257.706a.68.68 0 0 1-.32.077z" mask="url(#n)"/>
            </g>
            <path fill="#C4C4C4" d="M1216.654 150.095l231.944-107.907-193.874 179.988-38.07-72.08zM1452.302 39a.757.757 0 0 0-.294.068L1215.4 149.144a.691.691 0 0 0-.32.954l38.835 73.53a.69.69 0 0 0 .499.361.693.693 0 0 0 .59-.175L1452.78 40.206a.697.697 0 1 0-.478-1.206zM1359.305 689.58l158.303-47.942-.118 154.357-158.185-106.416zM1518.301 640a.762.762 0 0 0-.198.03l-160.607 48.635a.704.704 0 0 0-.19 1.251l160.492 107.965a.696.696 0 0 0 1.081-.578l.121-156.6a.701.701 0 0 0-.699-.703zM735.02 13a4 4 0 1 1-.04-8 4 4 0 1 1 .04 8"/>
            <path fill="#231F20" d="M735.532 15A6.504 6.504 0 0 1 729 8.532c-.02-3.58 2.881-6.512 6.468-6.532A6.51 6.51 0 0 1 742 8.468 6.51 6.51 0 0 1 735.532 15m-.014-2.637a3.863 3.863 0 1 0-3.881-3.845 3.866 3.866 0 0 0 3.881 3.845"/>
            <path fill="#C4C4C4" d="M933.534 132a6.5 6.5 0 1 1-.065-13 6.495 6.495 0 0 1 6.53 6.466 6.501 6.501 0 0 1-6.465 6.534"/>
            <path fill="#231F20" d="M933.547 135c-5.24.027-9.52-4.211-9.547-9.453-.027-5.237 4.211-9.52 9.45-9.547 5.237-.027 9.52 4.214 9.55 9.45.024 5.237-4.214 9.523-9.453 9.55m-.015-2.82a6.684 6.684 0 0 0 6.645-6.715 6.68 6.68 0 0 0-13.358.07 6.685 6.685 0 0 0 6.713 6.645"/>
            <path fill="#C4C4C4" d="M1319.022 545a4.002 4.002 0 0 1-4.022-3.98 4.001 4.001 0 0 1 3.98-4.02 4 4 0 1 1 .042 8"/>
            <path fill="#231F20" d="M1319.531 548a6.506 6.506 0 0 1-6.53-6.469c-.02-3.58 2.881-6.514 6.468-6.53 3.58-.018 6.514 2.881 6.53 6.465a6.509 6.509 0 0 1-6.468 6.534m-.011-2.674a3.823 3.823 0 1 0-.04-7.65 3.823 3.823 0 0 0 .04 7.65"/>
            <path fill="#C4C4C4" d="M1375.48 349a4.501 4.501 0 1 1-4.48 4.522 4.506 4.506 0 0 1 4.48-4.522"/>
            <path fill="#231F20" d="M1375.538 361c-4.133.021-7.517-3.33-7.538-7.462-.018-4.136 3.326-7.517 7.465-7.538 4.133-.021 7.514 3.326 7.535 7.459.021 4.139-3.326 7.517-7.462 7.54m-.015-2.857a4.646 4.646 0 0 0 4.622-4.668 4.648 4.648 0 0 0-4.668-4.616 4.646 4.646 0 0 0-4.62 4.665 4.644 4.644 0 0 0 4.666 4.62"/>
            <path fill="#C4C4C4" d="M1382.026 325a5 5 0 0 1-5.026-4.977 4.998 4.998 0 0 1 4.974-5.023 4.997 4.997 0 0 1 5.026 4.974 4.999 4.999 0 0 1-4.974 5.026"/>
            <path fill="#231F20" d="M1383.042 328c-4.413.024-8.018-3.549-8.042-7.96-.024-4.41 3.548-8.019 7.961-8.04 4.407-.024 8.018 3.546 8.039 7.96.02 4.41-3.548 8.016-7.958 8.04m-.015-2.818a5.18 5.18 0 0 0 5.152-5.21 5.178 5.178 0 0 0-5.203-5.154 5.18 5.18 0 0 0 .051 10.364"/>
            <path fill="#C4C4C4" d="M973.544 61A8.497 8.497 0 0 1 965 52.546 8.504 8.504 0 0 1 973.456 44c4.694-.02 8.52 3.763 8.544 8.46a8.5 8.5 0 0 1-8.456 8.54"/>
            <path fill="#231F20" d="M974.558 63c-6.34.033-11.528-5.101-11.558-11.443-.033-6.34 5.099-11.524 11.439-11.557 6.343-.03 11.528 5.098 11.56 11.44.03 6.343-5.1 11.524-11.44 11.56m-.016-2.795c4.81-.024 8.689-3.943 8.662-8.75-.024-4.806-3.941-8.684-8.751-8.66-4.807.027-8.686 3.94-8.662 8.75.024 4.81 3.944 8.684 8.751 8.66"/>
            <path fill="#C4C4C4" d="M1060 147.976a5 5 0 1 1-9.999.049 5 5 0 0 1 9.999-.049"/>
            <path fill="#231F20" d="M1055.043 157c-4.41.024-8.019-3.548-8.043-7.959-.021-4.414 3.55-8.02 7.96-8.04 4.41-.025 8.019 3.547 8.04 7.958.024 4.414-3.547 8.02-7.957 8.04m-.016-2.86a5.14 5.14 0 0 0-.051-10.278 5.14 5.14 0 0 0 .051 10.278"/>
            <path fill="#C4C4C4" d="M1215.545 158a8.503 8.503 0 0 1-8.545-8.457c-.024-4.694 3.762-8.518 8.459-8.543a8.498 8.498 0 0 1 8.54 8.457 8.5 8.5 0 0 1-8.454 8.543"/>
            <path fill="#231F20" d="M1215.555 160c-5.79.028-10.524-4.658-10.555-10.449-.025-5.785 4.657-10.523 10.448-10.55 5.787-.032 10.52 4.654 10.552 10.442.028 5.791-4.657 10.526-10.445 10.557m-.014-2.66a7.841 7.841 0 0 0-.08-15.682 7.84 7.84 0 1 0 .08 15.681"/>
            <path fill="#C4C4C4" d="M1254.025 228a5 5 0 0 1-5.025-4.976 4.998 4.998 0 0 1 4.972-5.024 4.999 4.999 0 1 1 .054 10"/>
            <path fill="#231F20" d="M1254.043 231c-4.413.023-8.02-3.545-8.043-7.959-.02-4.41 3.55-8.02 7.96-8.04 4.413-.024 8.016 3.547 8.04 7.958.023 4.413-3.548 8.02-7.957 8.04m-.015-2.768a5.23 5.23 0 1 0-.053-10.459 5.225 5.225 0 0 0-5.204 5.255 5.235 5.235 0 0 0 5.257 5.204"/>
        </g>
    </g>
</svg>
